<svg width="36" height="36" viewBox="0 0 36 36" fill="none" xmlns="http://www.w3.org/2000/svg">
<path fill-rule="evenodd" clip-rule="evenodd" d="M18 36C27.9411 36 36 27.9411 36 18C36 8.05887 27.9411 0 18 0C8.05887 0 0 8.05887 0 18C0 27.9411 8.05887 36 18 36Z" fill="url(#paint0_linear_0_21057)"/>
<path d="M19.8125 22.5625C19.8125 23.793 18.8281 24.75 17.625 24.75C16.3945 24.75 15.4375 23.793 15.4375 22.5625C15.4375 21.3594 16.3945 20.375 17.625 20.375C18.8281 20.375 19.8125 21.3594 19.8125 22.5625ZM15.6836 11.4609C15.6562 11.0781 15.957 10.75 16.3398 10.75H18.8828C19.2656 10.75 19.5664 11.0781 19.5391 11.4609L19.1836 18.8984C19.1562 19.2266 18.8555 19.5 18.5273 19.5H16.6953C16.3672 19.5 16.0664 19.2266 16.0391 18.8984L15.6836 11.4609Z" fill="white"/>
<defs>
<linearGradient id="paint0_linear_0_21057" x1="0" y1="0" x2="0" y2="36" gradientUnits="userSpaceOnUse">
<stop stop-color="#FF8F8F"/>
<stop offset="1" stop-color="#FFC1C1"/>
</linearGradient>
</defs>
</svg>
